<?xml version="1.0" encoding="UTF-8" ?>
<!DOCTYPE svg PUBLIC "-//W3C//DTD SVG 1.1//EN" "http://www.w3.org/Graphics/SVG/1.1/DTD/svg11.dtd">
<svg width="1862pt" height="804pt" viewBox="0 0 1862 804" version="1.1" xmlns="http://www.w3.org/2000/svg">
<g id="#ffffffff">
</g>
<g id="#bababaff">
<path fill="#bababa" opacity="1.00" d=" M 76.21 0.00 L 489.91 0.00 C 489.33 5.30 489.72 10.64 489.63 15.96 C 489.65 87.60 489.56 159.24 489.67 230.88 C 351.90 230.90 214.14 230.80 76.37 230.95 C 76.38 157.30 76.37 83.64 76.38 9.99 C 76.37 6.66 76.29 3.33 76.21 0.00 M 137.13 60.84 C 137.21 85.12 136.97 109.40 137.25 133.68 C 161.46 133.61 185.67 133.54 209.88 133.71 C 210.37 129.49 210.05 125.24 210.13 121.00 C 210.10 100.93 210.20 80.86 210.08 60.78 C 185.77 60.74 161.44 60.64 137.13 60.84 M 248.22 60.93 C 248.32 85.17 248.16 109.41 248.30 133.65 C 272.50 133.64 296.71 133.54 320.91 133.70 C 321.41 109.41 321.01 85.09 321.11 60.79 C 296.81 60.80 272.50 60.52 248.22 60.93 M 359.44 61.34 C 359.28 85.43 359.43 109.52 359.37 133.61 C 383.57 133.70 407.77 133.50 431.97 133.71 C 432.53 129.81 432.18 125.87 432.26 121.95 C 432.21 101.55 432.36 81.16 432.19 60.76 C 408.08 60.77 383.96 60.62 359.85 60.83 L 359.44 61.34 Z" />
<path fill="#bababa" opacity="1.00" d=" M 1061.73 41.63 C 1149.16 41.30 1236.60 41.59 1324.03 41.49 C 1330.34 41.61 1336.68 41.20 1342.99 41.81 C 1342.66 74.83 1343.09 107.85 1342.70 140.87 C 1317.82 141.47 1292.89 141.02 1268.00 141.00 C 1199.26 140.97 1130.52 141.08 1061.78 140.99 C 1061.70 107.87 1061.80 74.75 1061.73 41.63 Z" />
<path fill="#bababa" opacity="1.00" d=" M 655.41 158.07 C 659.24 157.48 663.12 157.82 666.99 157.76 C 747.02 157.75 827.05 157.76 907.08 157.75 C 916.97 157.76 926.87 157.66 936.76 158.17 C 936.30 191.28 937.05 224.42 936.33 257.53 C 886.56 257.18 836.78 257.47 787.01 257.38 C 743.23 257.39 699.45 257.35 655.67 257.40 C 655.20 224.30 655.72 191.18 655.41 158.07 Z" />
<path fill="#bababa" opacity="1.00" d=" M 1468.78 157.81 C 1553.53 157.68 1638.28 157.79 1723.03 157.75 C 1731.94 157.90 1740.88 157.45 1749.80 157.98 C 1749.70 191.04 1749.69 224.10 1749.80 257.15 C 1726.54 257.68 1703.25 257.23 1679.98 257.38 C 1609.59 257.32 1539.19 257.49 1468.79 257.29 C 1468.72 224.13 1468.74 190.97 1468.78 157.81 Z" />
<path fill="#bababa" opacity="1.00" d=" M 954.01 273.58 C 1115.32 273.67 1276.63 273.60 1437.95 273.62 C 1442.52 273.76 1447.14 273.29 1451.70 273.93 C 1451.58 306.93 1451.55 339.93 1451.72 372.93 C 1441.83 373.66 1431.88 373.04 1421.97 373.25 C 1265.91 373.17 1109.86 373.41 953.80 373.10 C 953.78 339.93 953.56 306.75 954.01 273.58 Z" />
<path fill="#bababa" opacity="1.00" d=" M 0.00 391.20 C 9.01 390.75 18.04 391.25 27.05 390.62 C 638.70 390.63 1250.35 390.62 1862.00 390.62 L 1862.00 491.35 C 1854.12 497.63 1847.17 504.96 1840.09 512.10 C 1796.48 555.13 1752.95 598.23 1709.37 641.29 C 1695.28 640.27 1681.14 640.50 1667.02 640.65 C 1164.70 640.56 662.38 640.70 160.05 640.58 C 143.02 640.64 125.97 640.25 108.94 640.64 L 108.79 641.89 C 74.16 561.61 39.40 481.39 4.79 401.11 C 3.20 397.95 2.67 393.88 0.00 391.54 L 0.00 391.20 Z" />
</g>
<g id="#7a7a7aff">
<path fill="#7a7a7a" opacity="1.00" d=" M 763.11 41.03 C 856.82 40.97 950.54 41.01 1044.25 41.01 C 1044.30 74.17 1044.17 107.33 1044.32 140.49 C 1024.24 140.88 1004.15 140.42 984.07 140.50 C 910.45 140.54 836.83 140.42 763.21 140.56 C 763.01 107.39 763.20 74.20 763.11 41.03 Z" />
<path fill="#7a7a7a" opacity="1.00" d=" M 1360.33 41.07 C 1418.52 40.90 1476.73 41.05 1534.93 41.00 C 1570.48 41.08 1606.04 40.84 1641.59 41.12 C 1641.39 74.28 1641.55 107.45 1641.51 140.61 C 1547.80 140.42 1454.09 140.53 1360.38 140.50 C 1360.33 107.36 1360.45 74.22 1360.33 41.07 Z" />
<path fill="#7a7a7a" opacity="1.00" d=" M 953.64 158.00 C 1119.56 157.39 1285.50 158.00 1451.43 157.66 C 1451.82 190.90 1451.62 224.17 1451.53 257.42 C 1335.36 257.31 1219.18 257.41 1103.01 257.38 C 1053.42 257.33 1003.82 257.41 954.23 257.57 C 953.16 224.40 954.12 191.19 953.64 158.00 Z" />
<path fill="#7a7a7a" opacity="1.00" d=" M 76.37 230.95 C 214.14 230.80 351.90 230.90 489.67 230.88 C 519.15 230.87 548.63 230.86 578.12 230.88 C 578.14 278.34 578.13 325.79 578.12 373.24 C 410.93 373.35 243.74 373.09 76.56 373.37 C 76.21 368.57 76.42 363.77 76.38 358.97 C 76.37 316.29 76.38 273.62 76.37 230.95 Z" />
<path fill="#7a7a7a" opacity="1.00" d=" M 655.42 372.95 C 655.65 339.83 655.33 306.71 655.58 273.59 C 749.22 273.63 842.85 273.69 936.49 273.55 C 936.76 306.64 936.62 339.74 936.56 372.82 C 936.20 372.93 935.49 373.15 935.14 373.26 C 879.77 373.18 824.40 373.07 769.03 373.13 C 731.16 373.01 693.28 373.36 655.42 372.95 Z" />
<path fill="#7a7a7a" opacity="1.00" d=" M 1468.75 273.63 C 1562.43 273.73 1656.12 273.37 1749.79 273.86 C 1749.71 306.95 1749.71 340.05 1749.79 373.15 C 1656.11 373.39 1562.43 373.20 1468.75 373.24 C 1468.74 340.04 1468.74 306.84 1468.75 273.63 Z" />
<path fill="#7a7a7a" opacity="1.00" d=" M 108.94 640.64 C 125.97 640.25 143.02 640.64 160.05 640.58 C 662.38 640.70 1164.70 640.56 1667.02 640.65 C 1681.14 640.50 1695.28 640.27 1709.37 641.29 C 1657.63 692.54 1605.75 743.66 1554.07 794.97 C 1550.77 797.59 1548.40 802.06 1544.13 803.01 C 1385.75 802.98 1227.36 803.01 1068.97 803.00 C 957.00 802.97 845.03 803.25 733.06 803.14 C 548.28 803.21 363.49 803.01 178.70 803.24 C 155.12 749.58 132.19 695.63 108.79 641.89 L 108.94 640.64 Z" />
</g>
</svg>
